<?xml version="1.0" encoding="UTF-8"?>
<svg id="Layer_1" data-name="Layer 1" xmlns="http://www.w3.org/2000/svg" xmlns:xlink="http://www.w3.org/1999/xlink" viewBox="0 0 50.28 40.7">
  <defs>
    <style>
      .cls-1 {
        stroke: url(#Silver);
      }

      .cls-1, .cls-2, .cls-3, .cls-4 {
        stroke-miterlimit: 10;
        stroke-width: .3px;
      }

      .cls-2 {
        stroke: url(#radial-gradient);
      }

      .cls-5 {
        fill: url(#Silver-8);
      }

      .cls-6 {
        fill: url(#Silver-4);
      }

      .cls-7 {
        fill: url(#Silver-7);
      }

      .cls-8 {
        fill: url(#Silver-6);
      }

      .cls-9 {
        fill: url(#Silver-5);
      }

      .cls-3 {
        stroke: url(#Silver-2);
      }

      .cls-4 {
        stroke: url(#Silver-3);
      }
    </style>
    <radialGradient id="radial-gradient" cx="25.14" cy="20.25" fx="25.14" fy="20.25" r="21.43" gradientUnits="userSpaceOnUse">
      <stop offset="0" stop-color="#e5e2df"/>
      <stop offset="0" stop-color="#ded9d6"/>
      <stop offset=".06" stop-color="#cfcac8"/>
      <stop offset=".18" stop-color="#a8a4a6"/>
      <stop offset=".26" stop-color="#8b878d"/>
      <stop offset=".52" stop-color="#f3f4f4"/>
      <stop offset=".58" stop-color="#e4e5e5"/>
      <stop offset=".7" stop-color="#bfbec0"/>
      <stop offset=".86" stop-color="#847f84"/>
      <stop offset=".88" stop-color="#807b80"/>
      <stop offset="1" stop-color="#d1d3d4"/>
      <stop offset="1" stop-color="#a7a9ac"/>
    </radialGradient>
    <linearGradient id="Silver" x1="25.84" y1="19.61" x2="38.89" y2="19.61" gradientUnits="userSpaceOnUse">
      <stop offset="0" stop-color="#e5e2df"/>
      <stop offset="0" stop-color="#ded9d6"/>
      <stop offset=".06" stop-color="#cfcac8"/>
      <stop offset=".18" stop-color="#a8a4a6"/>
      <stop offset=".26" stop-color="#8b878d"/>
      <stop offset=".52" stop-color="#f3f4f4"/>
      <stop offset=".58" stop-color="#e4e5e5"/>
      <stop offset=".7" stop-color="#bfbec0"/>
      <stop offset=".86" stop-color="#847f84"/>
      <stop offset=".88" stop-color="#807b80"/>
      <stop offset="1" stop-color="#d1d3d4"/>
      <stop offset="1" stop-color="#a7a9ac"/>
    </linearGradient>
    <linearGradient id="Silver-2" data-name="Silver" x1="17.49" y1="26.29" x2="32.95" y2="26.29" xlink:href="#Silver"/>
    <linearGradient id="Silver-3" data-name="Silver" x1="12.18" x2="25.38" xlink:href="#Silver"/>
    <linearGradient id="Silver-4" data-name="Silver" x1="15.04" y1="36.38" x2="18.41" y2="36.38" xlink:href="#Silver"/>
    <linearGradient id="Silver-5" data-name="Silver" x1="19.21" y1="36.38" x2="23.29" y2="36.38" xlink:href="#Silver"/>
    <linearGradient id="Silver-6" data-name="Silver" x1="24.01" y1="36.38" x2="27.77" y2="36.38" xlink:href="#Silver"/>
    <linearGradient id="Silver-7" data-name="Silver" x1="27.9" y1="36.38" x2="31.28" y2="36.38" xlink:href="#Silver"/>
    <linearGradient id="Silver-8" data-name="Silver" x1="31.85" y1="36.38" x2="35.2" y2="36.38" xlink:href="#Silver"/>
  </defs>
  <polygon class="cls-2" points="25.14 2.75 8.9 35.23 .78 35.23 .78 37.94 11.61 37.94 25.26 8.17 38.68 37.94 41.38 37.94 49.5 37.94 49.5 35.23 41.38 35.23 25.14 2.75"/>
  <path class="cls-1" d="m25.99,25.64v-12.06h12.35v1.42h-10.09v3.68h9.45v1.42h-9.45v4.1h10.49v1.42h-12.75Z"/>
  <path class="cls-3" d="m30.47,28.1l2.27.4c-.5,1.35-1.38,2.36-2.64,3.03-1.26.67-2.78,1-4.58,1-1.58,0-2.93-.22-4.06-.67-1.12-.45-2.04-1.16-2.76-2.15-.72-.99-1.07-2.15-1.07-3.5s.36-2.45,1.07-3.37c.72-.92,1.69-1.61,2.91-2.08,1.22-.47,2.59-.7,4.1-.7,1.65,0,3.07.3,4.25.89,1.19.59,2.01,1.46,2.49,2.61l-2.22.37c-.76-1.67-2.28-2.51-4.57-2.51-1.14,0-2.12.17-2.96.51-.83.34-1.5.86-2,1.58-.5.71-.75,1.62-.75,2.71,0,1.65.5,2.89,1.51,3.72,1,.83,2.34,1.24,4.01,1.24,1.23,0,2.29-.25,3.19-.76.9-.51,1.49-1.28,1.8-2.31Z"/>
  <path class="cls-4" d="m12.33,25.64v-12.06h6.42c1.3,0,2.33.12,3.09.35.76.23,1.38.6,1.86,1.09.48.49.73,1.04.73,1.64,0,.55-.21,1.05-.63,1.5-.42.44-1,.8-1.76,1.07.99.21,1.77.56,2.34,1.07.57.5.86,1.12.86,1.86s-.26,1.37-.77,1.92c-.52.55-1.21.95-2.07,1.2-.86.25-2.05.37-3.55.37h-6.51Zm2.26-6.99h3.7c.97,0,1.66-.04,2.06-.12.59-.12,1.04-.31,1.36-.58s.48-.64.48-1.11c0-.43-.14-.79-.43-1.08-.29-.29-.67-.49-1.15-.6-.48-.11-1.34-.16-2.58-.16h-3.43v3.64Zm0,5.57h4.26c.94,0,1.63-.05,2.08-.15.65-.14,1.14-.38,1.47-.7.34-.33.51-.74.51-1.23,0-.45-.16-.84-.48-1.16-.32-.32-.76-.55-1.3-.69-.55-.15-1.4-.22-2.57-.22h-3.96v4.14Z"/>
  <g>
    <path class="cls-6" d="m15.04,37.89v-3.01h.58l2.24,2.37v-2.37h.54v3.01h-.58l-2.24-2.37v2.37h-.54Z"/>
    <path class="cls-9" d="m19.21,36.42c0-.51.2-.91.59-1.19.39-.28.88-.41,1.46-.41.38,0,.72.06,1.03.19.31.12.56.3.74.54.18.24.27.52.27.84,0,.45-.18.81-.53,1.09-.39.31-.89.46-1.52.46s-1.14-.16-1.52-.48c-.35-.29-.52-.64-.52-1.04Zm.58,0c0,.37.14.66.42.87.28.2.63.31,1.03.31s.76-.1,1.04-.31.42-.51.42-.91c0-.26-.07-.49-.22-.7-.11-.16-.28-.28-.5-.38s-.47-.14-.73-.14c-.43,0-.78.1-1.05.31-.28.21-.41.52-.41.95Z"/>
    <path class="cls-8" d="m24.01,37.89v-3.01h1.89c.4,0,.69.03.88.08s.34.15.46.28c.12.13.18.28.18.45,0,.23-.1.41-.31.55s-.5.23-.89.27c.16.05.28.11.36.17.17.12.32.24.44.38l.75.82h-.71l-.57-.63c-.22-.25-.39-.41-.5-.5s-.22-.14-.33-.17c-.11-.03-.25-.04-.44-.04h-.65v1.34h-.56Zm.56-1.68h1.21c.27,0,.47-.02.6-.06s.25-.1.33-.17c.08-.08.12-.17.12-.28,0-.15-.08-.27-.23-.36-.15-.09-.38-.13-.69-.13h-1.35v1Z"/>
    <path class="cls-7" d="m29.31,37.89v-2.66h-1.41v-.36h3.39v.36h-1.41v2.66h-.56Z"/>
    <path class="cls-5" d="m31.85,37.89v-3.01h.56v1.24h2.22v-1.24h.56v3.01h-.56v-1.42h-2.22v1.42h-.56Z"/>
  </g>
</svg>